<svg xmlns="http://www.w3.org/2000/svg" xmlns:xlink="http://www.w3.org/1999/xlink" width="400" height="240" viewBox="0 0 400 240">
  <defs>
    <clipPath id="clip-s_illus_export-to-excel_452x320.svg">
      <rect width="400" height="240"/>
    </clipPath>
  </defs>
  <g id="s_illus_export-to-excel_452x320.svg" clip-path="url(#clip-s_illus_export-to-excel_452x320.svg)">
    <rect width="400" height="240" fill="#fff"/>
    <path id="Path_101390" data-name="Path 101390" d="M15.152,0A15.15,15.15,0,0,0,0,15.149V145.642a15.153,15.153,0,0,0,15.152,15.152H116.163a15.153,15.153,0,0,0,15.152-15.152V38.384a12.72,12.72,0,0,0-3.738-8.94L101.718,3.685A12.476,12.476,0,0,0,92.829,0Z" transform="translate(257.095 17.712)" fill="#fee" style="isolation: isolate"/>
    <g id="Group_155517" data-name="Group 155517" transform="translate(199.543 13.419)">
      <line id="Line_6847" data-name="Line 6847" y2="7.773" transform="translate(12.523 0)" fill="none" stroke="#0d66d0" stroke-linecap="round" stroke-width="3"/>
      <line id="Line_6848" data-name="Line 6848" y2="7.773" transform="translate(12.523 17.273)" fill="none" stroke="#0d66d0" stroke-linecap="round" stroke-width="3"/>
      <line id="Line_6850" data-name="Line 6850" y2="7.773" transform="translate(25.045 12.523) rotate(90)" fill="none" stroke="#0d66d0" stroke-linecap="round" stroke-width="3"/>
      <line id="Line_6849" data-name="Line 6849" y2="7.773" transform="translate(7.773 12.523) rotate(90)" fill="none" stroke="#0d66d0" stroke-linecap="round" stroke-width="3"/>
    </g>
    <g id="Group_155518" data-name="Group 155518" transform="translate(383.497 203.479) rotate(-1)">
      <line id="Line_6847-2" data-name="Line 6847" y2="3.969" transform="translate(8.112 0)" fill="none" stroke="#50bf61" stroke-linecap="round" stroke-width="3"/>
      <line id="Line_6848-2" data-name="Line 6848" y2="3.969" transform="translate(8.112 12.254)" fill="none" stroke="#50bf61" stroke-linecap="round" stroke-width="3"/>
      <line id="Line_6850-2" data-name="Line 6850" y2="3.969" transform="translate(16.223 8.111) rotate(90)" fill="none" stroke="#50bf61" stroke-linecap="round" stroke-width="3"/>
      <line id="Line_6849-2" data-name="Line 6849" y2="3.969" transform="translate(3.969 8.111) rotate(90)" fill="none" stroke="#50bf61" stroke-linecap="round" stroke-width="3"/>
    </g>
    <g id="Group_155519" data-name="Group 155519" transform="translate(237.592 0.617)">
      <line id="Line_6847-3" data-name="Line 6847" y2="3.146" transform="translate(6.43 0)" fill="none" stroke="#fba868" stroke-linecap="round" stroke-width="3"/>
      <line id="Line_6848-3" data-name="Line 6848" y2="3.146" transform="translate(6.43 9.713)" fill="none" stroke="#fba868" stroke-linecap="round" stroke-width="3"/>
      <line id="Line_6850-3" data-name="Line 6850" y2="3.146" transform="translate(12.859 6.43) rotate(90)" fill="none" stroke="#fba868" stroke-linecap="round" stroke-width="3"/>
      <line id="Line_6849-3" data-name="Line 6849" y2="3.146" transform="translate(3.146 6.43) rotate(90)" fill="none" stroke="#fba868" stroke-linecap="round" stroke-width="3"/>
    </g>
    <g id="Group_159996" data-name="Group 159996" transform="translate(244.233 37.337)">
      <path id="Path_101375" data-name="Path 101375" d="M0,144.066V15.184A15.168,15.168,0,0,1,15.147,0H89.621a16.645,16.645,0,0,1,11.737,4.849l22.3,22.182a16.726,16.726,0,0,1,4.923,11.857V144.066a15.168,15.168,0,0,1-15.148,15.184H15.147A15.168,15.168,0,0,1,0,144.066Z" transform="translate(0 0)" fill="#fff" stroke="#cacaca" stroke-linecap="round" stroke-linejoin="round" stroke-width="4"/>
      <g id="Group_155657" data-name="Group 155657" transform="translate(28.404 42.126) rotate(1)">
        <path id="Path_101549" data-name="Path 101549" d="M4.819,0h64.37a4.819,4.819,0,0,1,4.819,4.819v3a4.819,4.819,0,0,1-4.819,4.819H4.819A4.819,4.819,0,0,1,0,7.816v-3A4.819,4.819,0,0,1,4.819,0Z" transform="translate(0 1.135)" fill="#e1f5d0"/>
        <g id="Path_101548" data-name="Path 101548" transform="translate(1.203 1.135)" fill="none" stroke-linecap="round">
          <path d="M4.819,0H66.782A4.819,4.819,0,0,1,71.6,4.819v39.7a4.819,4.819,0,0,1-4.819,4.819H4.819A4.819,4.819,0,0,1,0,44.52V4.819A4.819,4.819,0,0,1,4.819,0Z" stroke="none"/>
          <path d="M 66.78245544433594 -3.814697265625e-06 L 4.819198608398438 1.1444091796875e-05 C 2.157630920410156 1.1444091796875e-05 7.62939453125e-06 2.157634735107422 7.62939453125e-06 4.819198608398438 L -7.62939453125e-06 44.51970291137695 C -7.62939453125e-06 47.18126678466797 2.157615661621094 49.33889389038086 4.819183349609375 49.33889389038086 L 66.78243255615234 49.3388671875 C 69.44399261474609 49.3388671875 71.60164642333984 47.18125534057617 71.60164642333984 44.51968002319336 L 71.60164642333984 4.819187164306641 C 71.60164642333984 2.157623291015625 69.44400787353516 -3.814697265625e-06 66.78245544433594 -3.814697265625e-06 M 66.78245544433594 -3.000003814697266 C 71.09397125244141 -3.000003814697266 74.60164642333984 0.5076675415039062 74.60164642333984 4.819187164306641 L 74.60164642333984 44.51968002319336 C 74.60164642333984 48.83119964599609 71.09396362304688 52.3388671875 66.78243255615234 52.3388671875 L 4.819183349609375 52.33889007568359 C 0.5076675415039062 52.33889007568359 -3.000007629394531 48.83122253417969 -3.000007629394531 44.51970291137695 L -2.999992370605469 4.819198608398438 C -2.999992370605469 0.5076789855957031 0.5076751708984375 -2.999988555908203 4.819198608398438 -2.999988555908203 L 66.78245544433594 -3.000003814697266 Z" stroke="none" fill="#44b756"/>
        </g>
        <line id="Line_6839" data-name="Line 6839" x2="73.407" transform="translate(0.301 13.47)" fill="none" stroke="#3eb851" stroke-width="3"/>
        <line id="Line_6846" data-name="Line 6846" x2="73.407" transform="translate(0.301 23.097)" fill="none" stroke="#3eb851" stroke-width="3"/>
        <path id="Path_101226" data-name="Path 101226" d="M0,0V52.58" transform="translate(12.936 0)" fill="none" stroke="#3eb851" stroke-width="3"/>
        <path id="Path_101227" data-name="Path 101227" d="M0,0V52.58" transform="translate(49.038 0)" fill="none" stroke="#3eb851" stroke-width="3"/>
        <line id="Line_6840" data-name="Line 6840" x2="73.407" transform="translate(0.301 32.724)" fill="none" stroke="#3eb851" stroke-width="3"/>
        <line id="Line_6841" data-name="Line 6841" x2="73.407" transform="translate(0.301 42.351)" fill="none" stroke="#3eb851" stroke-width="3"/>
      </g>
    </g>
    <g id="Group_159995" data-name="Group 159995" transform="translate(0.258 37.985)">
      <path id="Path_101359" data-name="Path 101359" d="M12.744,0H153.713a13.013,13.013,0,0,1,12.744,13.266V118.824a13.013,13.013,0,0,1-12.744,13.266H12.744A13.013,13.013,0,0,1,0,118.824V13.266A13.013,13.013,0,0,1,12.744,0Z" transform="translate(132.09 17.982) rotate(90)" fill="#fee"/>
      <path id="Path_101389" data-name="Path 101389" d="M183,343.432V214.089a15.222,15.222,0,0,1,15.2-15.239h74.74a16.7,16.7,0,0,1,11.779,4.867L307.1,225.978a16.786,16.786,0,0,1,4.94,11.9V343.432a15.222,15.222,0,0,1-15.2,15.239H198.2A15.222,15.222,0,0,1,183,343.432Z" transform="translate(-158.819 -198.85)" fill="#fff" stroke="#cacaca" stroke-linecap="round" stroke-linejoin="round" stroke-width="4"/>
      <line id="Line_6856" data-name="Line 6856" y2="31.88" transform="translate(153.151 56.461)" fill="none" stroke="#fff" stroke-width="5"/>
      <g id="Ellipse_10670" data-name="Ellipse 10670" transform="translate(119.394 124.104)" fill="#fff" stroke="#fff" stroke-width="1">
        <ellipse cx="23.59" cy="24.195" rx="23.59" ry="24.195" stroke="none"/>
        <ellipse cx="23.59" cy="24.195" rx="23.09" ry="23.695" fill="none"/>
      </g>
      <path id="Path_101403" data-name="Path 101403" d="M30.09,9.05A21.04,21.04,0,1,1,9.05,30.09,21.04,21.04,0,0,1,30.09,9.05ZM18.27,31.272a1.182,1.182,0,0,0,1.182,1.182h8.274v8.274a1.182,1.182,0,0,0,1.182,1.182h2.364a1.182,1.182,0,0,0,1.182-1.182V32.454h8.274a1.182,1.182,0,0,0,1.182-1.182V28.908a1.182,1.182,0,0,0-1.182-1.182H32.454V19.452a1.182,1.182,0,0,0-1.182-1.182H28.908a1.182,1.182,0,0,0-1.182,1.182v8.274H19.452a1.182,1.182,0,0,0-1.182,1.182Z" transform="translate(112.895 118.718)" fill="#0d66d0"/>
      <line id="Line_6857" data-name="Line 6857" y2="14.877" transform="translate(153.151 86.63)" fill="none" stroke="#cacaca" stroke-linecap="round" stroke-width="4"/>
      <line id="Line_6858" data-name="Line 6858" y2="14.877" transform="translate(153.151 41.997)" fill="none" stroke="#cacaca" stroke-linecap="round" stroke-width="4"/>
      <g id="Group_156085" data-name="Group 156085" transform="translate(142.943 86.755) rotate(-90)">
        <line id="Line_6851" data-name="Line 6851" y2="55.436" transform="translate(14.558 0)" fill="none" stroke="#cacaca" stroke-linecap="round" stroke-width="4"/>
        <line id="Line_6854" data-name="Line 6854" x2="13.595" y2="12.084" transform="translate(0 43.522)" fill="none" stroke="#cacaca" stroke-linecap="round" stroke-width="4"/>
        <line id="Line_6855" data-name="Line 6855" x1="14.142" y2="11.914" transform="translate(14.558 43.522)" fill="none" stroke="#cacaca" stroke-linecap="round" stroke-width="4"/>
      </g>
      <path id="Path_102636" data-name="Path 102636" d="M205.25,249.225c-3.717,5.876-7.377,9.587-9.516,9.587a1.428,1.428,0,0,1-1.443-1.678c.405-2.1,4.642-5.138,10.958-7.909Zm17.871-8.4c-1.6.328-3.247.709-4.921,1.143-1.2.313-2.421.653-3.642,1.018.649-1.3,1.244-2.59,1.762-3.814.684-1.619,1.326-3.239,1.917-4.824.518.8,1.054,1.574,1.6,2.32a46.553,46.553,0,0,0,3.411,4.127Zm-8.256-27.956a1.537,1.537,0,0,1,1.285-.815c1.408,0,1.714,1.665,1.714,3.06a37.521,37.521,0,0,1-1.844,9.673c-2.363-6.141-2.033-10.443-1.156-11.917ZM241.32,244.96c-.2,1.046-1.307,1.721-2.816,1.721a5.473,5.473,0,0,1-1.272-.155,20.881,20.881,0,0,1-8.067-4.006,40.716,40.716,0,0,1,5.968-.451,21.942,21.942,0,0,1,3.978.3c1.195.244,2.544.891,2.208,2.592Zm4.006-2.771c-1.762-1.854-5.132-2.8-10.016-2.8a53.87,53.87,0,0,0-8.09.69,39.729,39.729,0,0,1-4.66-5.337,48.764,48.764,0,0,1-2.915-4.446c1.719-5.313,2.592-9.628,2.592-12.823,0-3.927-1.585-8.125-6.033-8.125a4.49,4.49,0,0,0-3.724,2.158c-1.9,3.2-1.138,9.776,1.891,16.472-1.054,3.075-2.2,6.07-3.612,9.388a83.006,83.006,0,0,1-4.084,8.319c-4.537,1.794-14.182,6.141-15.1,10.945a4.027,4.027,0,0,0,1.32,3.827,5.809,5.809,0,0,0,3.931,1.376c5.809,0,11.6-7.892,15.5-14.684,2.214-.74,4.476-1.41,6.728-1.995,2.469-.643,4.856-1.169,7.107-1.561,6.15,5.266,11.618,6.063,14.358,6.063,3.765,0,5.173-1.6,5.686-2.948a4.454,4.454,0,0,0-.88-4.522Z" transform="translate(-130.79 -163.224)" fill="#fa0f00" fill-rule="evenodd"/>
    </g>
  </g>
</svg>
